<svg width="116" height="27" viewBox="0 0 116 27" fill="none" xmlns="http://www.w3.org/2000/svg">
<path fill-rule="evenodd" clip-rule="evenodd" d="M13.793 0.292847L1.29304 12.7928L0.585938 13.5L1.29304 14.2071L13.793 26.7071L15.2073 25.2928L3.41436 13.5L15.2073 1.70706L13.793 0.292847ZM66.2001 10.392V19H68.6802V15.784H72.4242V19H74.9202V10.392H72.4242V13.752H68.6802V10.392H66.2001ZM82.4615 17.9303V19H84.7975V14.088C84.7975 12.776 84.4349 11.8106 83.7095 11.192C82.9842 10.5733 81.9655 10.264 80.6535 10.264C79.9709 10.264 79.2989 10.3546 78.6375 10.536C77.9762 10.7173 77.4109 10.9733 76.9415 11.304L77.8375 13.048C78.1469 12.8026 78.5202 12.6106 78.9575 12.472C79.4055 12.3226 79.8589 12.248 80.3175 12.248C80.9895 12.248 81.4855 12.3973 81.8055 12.696C82.1362 12.9946 82.3015 13.4106 82.3015 13.944H80.3175C79.4429 13.944 78.7335 14.056 78.1895 14.28C77.6455 14.4933 77.2455 14.792 76.9895 15.176C76.7442 15.56 76.6215 16.008 76.6215 16.52C76.6215 17.0106 76.7495 17.4533 77.0055 17.848C77.2615 18.2426 77.6295 18.5573 78.1095 18.792C78.5895 19.016 79.1655 19.128 79.8375 19.128C80.5949 19.128 81.2135 18.984 81.6935 18.696C82.0176 18.5015 82.2736 18.2463 82.4615 17.9303ZM82.3015 16.28V15.4H80.5895C80.0029 15.4 79.5975 15.496 79.3735 15.688C79.1602 15.88 79.0535 16.12 79.0535 16.408C79.0535 16.728 79.1762 16.984 79.4215 17.176C79.6775 17.3573 80.0242 17.448 80.4615 17.448C80.8775 17.448 81.2509 17.352 81.5815 17.16C81.9122 16.9573 82.1522 16.664 82.3015 16.28ZM87.8157 18.952C88.477 19.0906 89.1383 19.16 89.7997 19.16C90.6103 19.16 91.3357 19.0533 91.9757 18.84C92.6263 18.616 93.1383 18.3013 93.5117 17.896C93.8957 17.48 94.0877 16.9946 94.0877 16.44C94.0877 15.7893 93.8157 15.2773 93.2717 14.904C93.0473 14.7456 92.7886 14.6199 92.4954 14.5269C92.9061 14.3374 93.2288 14.0844 93.4637 13.768C93.7197 13.4373 93.8477 13.064 93.8477 12.648C93.8477 12.1253 93.661 11.6826 93.2877 11.32C92.925 10.9573 92.4237 10.68 91.7837 10.488C91.1437 10.296 90.4237 10.2106 89.6236 10.232C89.0797 10.2426 88.5303 10.3173 87.9757 10.456C87.421 10.5946 86.861 10.7813 86.2957 11.016L86.9037 12.744C87.3837 12.552 87.853 12.408 88.3117 12.312C88.7703 12.2053 89.213 12.152 89.6397 12.152C90.013 12.152 90.3223 12.1893 90.5676 12.264C90.813 12.328 90.9996 12.424 91.1277 12.552C91.2557 12.68 91.3197 12.8346 91.3197 13.016C91.3197 13.1866 91.2663 13.336 91.1597 13.464C91.0637 13.5813 90.9143 13.672 90.7117 13.736C90.509 13.8 90.2637 13.832 89.9757 13.832H88.4237V15.384H90.1837C90.6317 15.384 90.973 15.4586 91.2077 15.608C91.4423 15.7466 91.5597 15.9546 91.5597 16.232C91.5597 16.4453 91.485 16.6266 91.3357 16.776C91.1863 16.9253 90.9677 17.0426 90.6796 17.128C90.4023 17.2026 90.0717 17.24 89.6877 17.24C89.1543 17.24 88.6263 17.1866 88.1037 17.08C87.5917 16.9626 87.117 16.7973 86.6796 16.584L86.0077 18.328C86.5623 18.6053 87.165 18.8133 87.8157 18.952ZM101.024 17.9303V19H103.36V14.088C103.36 12.776 102.997 11.8106 102.272 11.192C101.547 10.5733 100.528 10.264 99.216 10.264C98.5334 10.264 97.8614 10.3546 97.2 10.536C96.5387 10.7173 95.9734 10.9733 95.504 11.304L96.4 13.048C96.7094 12.8026 97.0827 12.6106 97.52 12.472C97.968 12.3226 98.4214 12.248 98.88 12.248C99.552 12.248 100.048 12.3973 100.368 12.696C100.699 12.9946 100.864 13.4106 100.864 13.944H98.88C98.0054 13.944 97.296 14.056 96.752 14.28C96.208 14.4933 95.808 14.792 95.552 15.176C95.3067 15.56 95.184 16.008 95.184 16.52C95.184 17.0106 95.312 17.4533 95.568 17.848C95.824 18.2426 96.192 18.5573 96.672 18.792C97.152 19.016 97.728 19.128 98.4 19.128C99.1574 19.128 99.776 18.984 100.256 18.696C100.58 18.5015 100.836 18.2463 101.024 17.9303ZM100.864 16.28V15.4H99.152C98.5654 15.4 98.16 15.496 97.936 15.688C97.7227 15.88 97.616 16.12 97.616 16.408C97.616 16.728 97.7387 16.984 97.984 17.176C98.24 17.3573 98.5867 17.448 99.024 17.448C99.44 17.448 99.8134 17.352 100.144 17.16C100.475 16.9573 100.715 16.664 100.864 16.28ZM113.944 16.952H115.176V20.856H112.856V19H106.808V20.856H104.488V16.952H104.776C105.086 16.952 105.336 16.8613 105.528 16.68C105.72 16.488 105.87 16.2266 105.976 15.896C106.083 15.5546 106.163 15.1706 106.216 14.744C106.27 14.3066 106.307 13.848 106.328 13.368L106.44 10.392H113.944V16.952ZM111.448 16.952V12.44H108.632L108.584 13.544C108.563 14.0026 108.536 14.44 108.504 14.856C108.472 15.272 108.408 15.6506 108.312 15.992C108.227 16.3226 108.099 16.6053 107.928 16.84C107.898 16.8794 107.866 16.9168 107.833 16.952H111.448Z" fill="#DCE1DE"/>
</svg>
