<svg width="51" height="51" viewBox="0 0 51 51" fill="none" xmlns="http://www.w3.org/2000/svg">
<mask id="path-1-inside-1_48_18" fill="white">
<path fill-rule="evenodd" clip-rule="evenodd" d="M50.1766 37.0858C50.6625 36.2845 49.805 35.3789 48.92 35.6871C46.1267 36.6595 43.1241 37.1882 39.9976 37.1882C25.0719 37.1882 12.9722 25.1401 12.9722 10.2779C12.9722 7.16768 13.5021 4.18066 14.4769 1.40151C14.7871 0.517213 13.8839 -0.343766 13.0806 0.138953C5.24159 4.84998 0 13.4129 0 23.1949C0 38.057 12.0997 50.1051 27.0254 50.1051C36.8469 50.1051 45.4447 44.8883 50.1766 37.0858Z"/>
</mask>
<path d="M48.92 35.6871L47.9337 32.8538L48.92 35.6871ZM50.1766 37.0858L52.7417 38.6414L50.1766 37.0858ZM47.9337 32.8538C45.4533 33.7174 42.7839 34.1882 39.9976 34.1882V40.1882C43.4643 40.1882 46.8001 39.6017 49.9064 38.5203L47.9337 32.8538ZM39.9976 34.1882C26.7166 34.1882 15.9722 23.4711 15.9722 10.2779H9.97217C9.97217 26.809 23.4271 40.1882 39.9976 40.1882V34.1882ZM15.9722 10.2779C15.9722 7.51059 16.4433 4.85906 17.3078 2.3945L11.646 0.408527C10.5608 3.50226 9.97217 6.82477 9.97217 10.2779H15.9722ZM3 23.1949C3 14.5131 7.64832 6.90368 14.626 2.71033L11.5353 -2.43243C2.83487 2.79628 -3 12.3127 -3 23.1949H3ZM27.0254 47.1051C13.7444 47.1051 3 36.3881 3 23.1949H-3C-3 39.7259 10.4549 53.1051 27.0254 53.1051V47.1051ZM47.6114 35.5301C43.4029 42.4698 35.7592 47.1051 27.0254 47.1051V53.1051C37.9346 53.1051 47.4865 47.3069 52.7417 38.6414L47.6114 35.5301ZM17.3078 2.3945C17.8918 0.729592 17.3226 -0.938888 16.2316 -1.94637C15.0968 -2.99432 13.2265 -3.44877 11.5353 -2.43243L14.626 2.71033C13.738 3.24396 12.7209 2.97864 12.161 2.46157C11.6449 1.98497 11.3722 1.18913 11.646 0.408527L17.3078 2.3945ZM49.9064 38.5203C49.125 38.7923 48.3283 38.5178 47.8518 37.9985C47.3349 37.4351 47.0744 36.4156 47.6114 35.5301L52.7417 38.6414C53.7647 36.9546 53.3185 35.0818 52.273 33.9423C51.268 32.8469 49.6001 32.2737 47.9337 32.8538L49.9064 38.5203Z" fill="#1F2421" mask="url(#path-1-inside-1_48_18)"/>
</svg>
