<svg width="140" height="27" viewBox="0 0 140 27" fill="none" xmlns="http://www.w3.org/2000/svg">
<path fill-rule="evenodd" clip-rule="evenodd" d="M126.707 26.7071L139.207 14.2071L139.914 13.5L139.207 12.7928L126.707 0.292847L125.293 1.70706L137.086 13.5L125.293 25.2928L126.707 26.7071ZM2.81609 18.568C3.54143 18.9413 4.36809 19.128 5.29609 19.128C6.20276 19.128 6.99209 18.9413 7.66409 18.568C8.33609 18.184 8.83209 17.6453 9.15209 16.952L7.21609 15.896C6.99209 16.312 6.70943 16.616 6.36809 16.808C6.03743 16.9893 5.67476 17.08 5.28009 17.08C4.85343 17.08 4.46943 16.984 4.12809 16.792C3.78676 16.6 3.51476 16.328 3.31209 15.976C3.12009 15.624 3.02409 15.1973 3.02409 14.696C3.02409 14.1946 3.12009 13.768 3.31209 13.416C3.51476 13.064 3.78676 12.792 4.12809 12.6C4.46943 12.408 4.85343 12.312 5.28009 12.312C5.67476 12.312 6.03743 12.408 6.36809 12.6C6.70943 12.792 6.99209 13.0906 7.21609 13.496L9.15209 12.456C8.83209 11.752 8.33609 11.2133 7.66409 10.84C6.99209 10.456 6.20276 10.264 5.29609 10.264C4.36809 10.264 3.54143 10.456 2.81609 10.84C2.09076 11.2133 1.52009 11.736 1.10409 12.408C0.69876 13.0693 0.496094 13.832 0.496094 14.696C0.496094 15.5493 0.69876 16.312 1.10409 16.984C1.52009 17.656 2.09076 18.184 2.81609 18.568ZM9.56822 16.936L9.44022 18.984C9.68555 19.048 9.91489 19.096 10.1282 19.128C10.3416 19.16 10.5442 19.176 10.7362 19.176C11.2696 19.176 11.7069 19.0533 12.0482 18.808C12.3896 18.552 12.6616 18.1946 12.8642 17.736C13.0669 17.2666 13.2109 16.712 13.2962 16.072C13.3922 15.432 13.4562 14.728 13.4882 13.96L13.567 12.44H16.2882V19H18.7842V10.392H11.4242L11.2962 13.848C11.2749 14.2533 11.2429 14.6426 11.2002 15.016C11.1682 15.3893 11.1096 15.7253 11.0242 16.024C10.9389 16.312 10.8109 16.5413 10.6402 16.712C10.4696 16.8826 10.2349 16.968 9.93622 16.968H9.76022L9.56822 16.936ZM22.8005 18.552C23.5471 18.936 24.4111 19.128 25.3925 19.128C26.1711 19.128 26.8591 19.0106 27.4565 18.776C28.0538 18.5306 28.5498 18.184 28.9445 17.736L27.6165 16.296C27.3285 16.5733 27.0085 16.7813 26.6565 16.92C26.3151 17.0586 25.9151 17.128 25.4565 17.128C24.9445 17.128 24.4965 17.0373 24.1125 16.856C23.7391 16.664 23.4458 16.392 23.2325 16.04C23.1221 15.8424 23.0418 15.6291 22.9915 15.4H29.5045C29.5151 15.2933 29.5258 15.1813 29.5365 15.064C29.5471 14.936 29.5525 14.824 29.5525 14.728C29.5525 13.8 29.3551 13.0053 28.9605 12.344C28.5658 11.672 28.0271 11.16 27.3445 10.808C26.6725 10.4453 25.9151 10.264 25.0725 10.264C24.1978 10.264 23.4138 10.456 22.7205 10.84C22.0271 11.2133 21.4778 11.736 21.0725 12.408C20.6778 13.0693 20.4805 13.832 20.4805 14.696C20.4805 15.5493 20.6831 16.312 21.0885 16.984C21.4938 17.6453 22.0645 18.168 22.8005 18.552ZM22.9627 13.944C23.0042 13.6773 23.0835 13.4373 23.2005 13.224C23.3818 12.8826 23.6325 12.6213 23.9525 12.44C24.2831 12.248 24.6618 12.152 25.0885 12.152C25.5151 12.152 25.8885 12.248 26.2085 12.44C26.5285 12.6213 26.7791 12.8773 26.9605 13.208C27.0808 13.4274 27.1612 13.6728 27.2017 13.944H22.9627ZM39.8036 16.952H41.0356V20.856H38.7156V19H32.6676V20.856H30.3476V16.952H30.6356C30.9449 16.952 31.1956 16.8613 31.3876 16.68C31.5796 16.488 31.7289 16.2266 31.8356 15.896C31.9423 15.5546 32.0223 15.1706 32.0756 14.744C32.1289 14.3066 32.1663 13.848 32.1876 13.368L32.2996 10.392H39.8036V16.952ZM37.3076 16.952V12.44H34.4916L34.4436 13.544C34.4223 14.0026 34.3956 14.44 34.3636 14.856C34.3316 15.272 34.2676 15.6506 34.1716 15.992C34.0863 16.3226 33.9583 16.6053 33.7876 16.84C33.7575 16.8794 33.7256 16.9168 33.6919 16.952H37.3076ZM42.4463 22.024C42.8837 22.1626 43.3263 22.232 43.7743 22.232C44.297 22.232 44.7717 22.152 45.1983 21.992C45.6357 21.832 46.0303 21.5546 46.3823 21.16C46.745 20.7653 47.065 20.2213 47.3423 19.528L51.2303 10.392H48.8303L46.3987 16.238L43.9823 10.392H41.4063L45.1329 19.0718L45.1023 19.144C44.9317 19.528 44.7397 19.8 44.5263 19.96C44.3237 20.1306 44.0463 20.216 43.6943 20.216C43.449 20.216 43.1983 20.168 42.9423 20.072C42.697 19.976 42.4783 19.8426 42.2863 19.672L41.3743 21.448C41.6517 21.6933 42.009 21.8853 42.4463 22.024ZM54.9145 10.392H52.4345V19H54.9145V15.72H56.0902C56.1863 16.1719 56.349 16.5933 56.5785 16.984C56.9731 17.6453 57.5171 18.168 58.2105 18.552C58.9038 18.936 59.6931 19.128 60.5785 19.128C61.4638 19.128 62.2478 18.9413 62.9305 18.568C63.6238 18.184 64.1678 17.656 64.5625 16.984C64.9571 16.312 65.1545 15.5493 65.1545 14.696C65.1545 13.832 64.9571 13.0693 64.5625 12.408C64.1678 11.736 63.6238 11.2133 62.9305 10.84C62.2478 10.456 61.4638 10.264 60.5785 10.264C59.6931 10.264 58.9038 10.456 58.2105 10.84C57.5171 11.2133 56.9731 11.736 56.5785 12.408C56.3667 12.7628 56.2118 13.1468 56.1136 13.56H54.9145V10.392ZM61.6505 16.792C61.3411 16.984 60.9838 17.08 60.5785 17.08C60.1838 17.08 59.8211 16.984 59.4905 16.792C59.1705 16.6 58.9145 16.328 58.7225 15.976C58.5411 15.6133 58.4505 15.1866 58.4505 14.696C58.4505 14.1946 58.5411 13.768 58.7225 13.416C58.9145 13.064 59.1705 12.792 59.4905 12.6C59.8211 12.408 60.1838 12.312 60.5785 12.312C60.9838 12.312 61.3411 12.408 61.6505 12.6C61.9705 12.792 62.2211 13.064 62.4025 13.416C62.5945 13.768 62.6905 14.1946 62.6905 14.696C62.6905 15.1866 62.5945 15.6133 62.4025 15.976C62.2211 16.328 61.9705 16.6 61.6505 16.792ZM72.2156 16.952V10.392H74.7116V16.952H77.4796H77.5436V10.392H80.0236V16.952H81.2236V20.712H78.9036V19H77.4796H66.8876V10.392H69.3676V16.952H72.2156ZM84.0348 18.552C84.7815 18.936 85.6455 19.128 86.6268 19.128C87.4055 19.128 88.0935 19.0106 88.6908 18.776C89.2882 18.5306 89.7842 18.184 90.1788 17.736L88.8508 16.296C88.5628 16.5733 88.2428 16.7813 87.8908 16.92C87.5495 17.0586 87.1495 17.128 86.6908 17.128C86.1788 17.128 85.7308 17.0373 85.3468 16.856C84.9735 16.664 84.6802 16.392 84.4668 16.04C84.3565 15.8424 84.2761 15.6291 84.2259 15.4H90.7388C90.7495 15.2933 90.7602 15.1813 90.7708 15.064C90.7815 14.936 90.7868 14.824 90.7868 14.728C90.7868 13.8 90.5895 13.0053 90.1948 12.344C89.8002 11.672 89.2615 11.16 88.5788 10.808C87.9068 10.4453 87.1495 10.264 86.3068 10.264C85.4322 10.264 84.6482 10.456 83.9548 10.84C83.2615 11.2133 82.7122 11.736 82.3068 12.408C81.9122 13.0693 81.7148 13.832 81.7148 14.696C81.7148 15.5493 81.9175 16.312 82.3228 16.984C82.7282 17.6453 83.2988 18.168 84.0348 18.552ZM84.1971 13.944C84.2386 13.6773 84.3178 13.4373 84.4348 13.224C84.6162 12.8826 84.8668 12.6213 85.1868 12.44C85.5175 12.248 85.8962 12.152 86.3228 12.152C86.7495 12.152 87.1228 12.248 87.4428 12.44C87.7628 12.6213 88.0135 12.8773 88.1948 13.208C88.3152 13.4274 88.3956 13.6728 88.4361 13.944H84.1971ZM94.3161 18.552C95.0628 18.936 95.9268 19.128 96.9081 19.128C97.6868 19.128 98.3748 19.0106 98.9721 18.776C99.5694 18.5306 100.065 18.184 100.46 17.736L99.1321 16.296C98.8441 16.5733 98.5241 16.7813 98.1721 16.92C97.8308 17.0586 97.4308 17.128 96.9721 17.128C96.4601 17.128 96.0121 17.0373 95.6281 16.856C95.2548 16.664 94.9614 16.392 94.7481 16.04C94.6377 15.8424 94.5574 15.6291 94.5071 15.4H101.02C101.031 15.2933 101.041 15.1813 101.052 15.064C101.063 14.936 101.068 14.824 101.068 14.728C101.068 13.8 100.871 13.0053 100.476 12.344C100.081 11.672 99.5428 11.16 98.8601 10.808C98.1881 10.4453 97.4308 10.264 96.5881 10.264C95.7134 10.264 94.9294 10.456 94.2361 10.84C93.5428 11.2133 92.9934 11.736 92.5881 12.408C92.1934 13.0693 91.9961 13.832 91.9961 14.696C91.9961 15.5493 92.1988 16.312 92.6041 16.984C93.0094 17.6453 93.5801 18.168 94.3161 18.552ZM94.4783 13.944C94.5198 13.6773 94.5991 13.4373 94.7161 13.224C94.8974 12.8826 95.1481 12.6213 95.4681 12.44C95.7988 12.248 96.1774 12.152 96.6041 12.152C97.0308 12.152 97.4041 12.248 97.7241 12.44C98.0441 12.6213 98.2948 12.8773 98.4761 13.208C98.5965 13.4274 98.6769 13.6728 98.7173 13.944H94.4783Z" fill="#DCE1DE"/>
</svg>
