<svg width="146" height="27" viewBox="0 0 146 27" fill="none" xmlns="http://www.w3.org/2000/svg">
<path fill-rule="evenodd" clip-rule="evenodd" d="M13.793 0.292847L1.29304 12.7928L0.585938 13.5L1.29304 14.2071L13.793 26.7071L15.2073 25.2928L3.41436 13.5L15.2073 1.70706L13.793 0.292847ZM33.2001 10.392V19H35.6801V12.44H39.2642V19H41.7602V10.392H33.2001ZM47.3213 18.648C47.8653 18.968 48.4999 19.128 49.2253 19.128C50.0359 19.128 50.7613 18.9466 51.4013 18.584C52.0519 18.2213 52.5639 17.7093 52.9373 17.048C53.3213 16.3866 53.5133 15.6026 53.5133 14.696C53.5133 13.8 53.3213 13.0213 52.9373 12.36C52.5639 11.6986 52.0519 11.1866 51.4013 10.824C50.7613 10.4506 50.0359 10.264 49.2253 10.264C48.4679 10.264 47.8173 10.424 47.2733 10.744C46.9872 10.9122 46.7365 11.1262 46.5213 11.3859V10.392H44.1373V22.104H46.6333V18.0886C46.8368 18.3114 47.0661 18.4979 47.3213 18.648ZM49.8973 16.792C49.5773 16.984 49.2093 17.08 48.7933 17.08C48.3773 17.08 48.0039 16.984 47.6733 16.792C47.3426 16.6 47.0813 16.328 46.8893 15.976C46.6973 15.6133 46.6013 15.1866 46.6013 14.696C46.6013 14.1946 46.6973 13.768 46.8893 13.416C47.0813 13.064 47.3426 12.792 47.6733 12.6C48.0039 12.408 48.3773 12.312 48.7933 12.312C49.2093 12.312 49.5773 12.408 49.8973 12.6C50.2279 12.792 50.4893 13.064 50.6813 13.416C50.8839 13.768 50.9853 14.1946 50.9853 14.696C50.9853 15.1866 50.8839 15.6133 50.6813 15.976C50.4893 16.328 50.2279 16.6 49.8973 16.792ZM56.8787 18.552C57.6253 18.936 58.4893 19.128 59.4706 19.128C60.2493 19.128 60.9373 19.0106 61.5347 18.776C62.132 18.5306 62.628 18.184 63.0227 17.736L61.6947 16.296C61.4067 16.5733 61.0867 16.7813 60.7346 16.92C60.3933 17.0586 59.9933 17.128 59.5347 17.128C59.0227 17.128 58.5746 17.0373 58.1907 16.856C57.8173 16.664 57.524 16.392 57.3106 16.04C57.2003 15.8424 57.12 15.6291 57.0697 15.4H63.5826C63.5933 15.2933 63.604 15.1813 63.6147 15.064C63.6253 14.936 63.6307 14.824 63.6307 14.728C63.6307 13.8 63.4333 13.0053 63.0387 12.344C62.644 11.672 62.1053 11.16 61.4226 10.808C60.7507 10.4453 59.9933 10.264 59.1507 10.264C58.276 10.264 57.492 10.456 56.7987 10.84C56.1053 11.2133 55.556 11.736 55.1507 12.408C54.756 13.0693 54.5587 13.832 54.5587 14.696C54.5587 15.5493 54.7613 16.312 55.1666 16.984C55.572 17.6453 56.1427 18.168 56.8787 18.552ZM57.0409 13.944C57.0824 13.6773 57.1616 13.4373 57.2787 13.224C57.46 12.8826 57.7107 12.6213 58.0307 12.44C58.3613 12.248 58.74 12.152 59.1666 12.152C59.5933 12.152 59.9667 12.248 60.2867 12.44C60.6067 12.6213 60.8573 12.8773 61.0387 13.208C61.159 13.4274 61.2394 13.6728 61.2799 13.944H57.0409ZM73.8818 16.952H75.1138V20.856H72.7938V19H66.7458V20.856H64.4258V16.952H64.7138C65.0231 16.952 65.2738 16.8613 65.4658 16.68C65.6578 16.488 65.8071 16.2266 65.9138 15.896C66.0204 15.5546 66.1004 15.1706 66.1538 14.744C66.2071 14.3066 66.2444 13.848 66.2658 13.368L66.3778 10.392H73.8818V16.952ZM71.3858 16.952V12.44H68.5698L68.5218 13.544C68.5004 14.0026 68.4738 14.44 68.4418 14.856C68.4098 15.272 68.3458 15.6506 68.2498 15.992C68.1644 16.3226 68.0364 16.6053 67.8658 16.84C67.8357 16.8794 67.8038 16.9168 67.7701 16.952H71.3858ZM88.0285 10.392H85.5485V19H88.0285V10.392ZM83.7565 13.912C83.1912 13.4106 82.3432 13.1546 81.2125 13.144H79.1645V10.392H76.6845V19L80.8765 19.016C82.0712 19.016 82.9939 18.7546 83.6445 18.232C84.2952 17.6986 84.6205 16.9573 84.6205 16.008C84.6205 15.1013 84.3325 14.4026 83.7565 13.912ZM81.7565 16.936C81.5005 17.1493 81.1325 17.2506 80.6525 17.24H79.1645V14.744L80.6525 14.76C81.1325 14.7706 81.5005 14.872 81.7565 15.064C82.0125 15.2453 82.1405 15.5493 82.1405 15.976C82.1405 16.4026 82.0125 16.7226 81.7565 16.936ZM98.8505 16.952H100.083V20.856H97.7625V19H91.7145V20.856H89.3945V16.952H89.6825C89.9919 16.952 90.2425 16.8613 90.4345 16.68C90.6265 16.488 90.7759 16.2266 90.8825 15.896C90.9892 15.5546 91.0692 15.1706 91.1225 14.744C91.1759 14.3066 91.2132 13.848 91.2345 13.368L91.3465 10.392H98.8505V16.952ZM96.3545 16.952V12.44H93.5385L93.4905 13.544C93.4692 14.0026 93.4425 14.44 93.4105 14.856C93.3785 15.272 93.3145 15.6506 93.2185 15.992C93.1332 16.3226 93.0052 16.6053 92.8345 16.84C92.8044 16.8794 92.7725 16.9168 92.7388 16.952H96.3545ZM101.493 22.024C101.931 22.1626 102.373 22.232 102.821 22.232C103.344 22.232 103.819 22.152 104.245 21.992C104.683 21.832 105.077 21.5546 105.429 21.16C105.792 20.7653 106.112 20.2213 106.389 19.528L110.277 10.392H107.877L105.446 16.238L103.029 10.392H100.453L104.18 19.0718L104.149 19.144C103.979 19.528 103.787 19.8 103.573 19.96C103.371 20.1306 103.093 20.216 102.741 20.216C102.496 20.216 102.245 20.168 101.989 20.072C101.744 19.976 101.525 19.8426 101.333 19.672L100.421 21.448C100.699 21.6933 101.056 21.8853 101.493 22.024ZM116.809 10.392V16.952H113.961V10.392H111.481V19H122.073H123.497V20.712H125.817V16.952H124.617V10.392H122.137V16.952H122.073H119.305V10.392H116.809ZM128.629 18.552C129.375 18.936 130.239 19.128 131.221 19.128C131.999 19.128 132.687 19.0106 133.285 18.776C133.882 18.5306 134.378 18.184 134.773 17.736L133.445 16.296C133.157 16.5733 132.837 16.7813 132.485 16.92C132.143 17.0586 131.743 17.128 131.285 17.128C130.773 17.128 130.325 17.0373 129.941 16.856C129.567 16.664 129.274 16.392 129.061 16.04C128.95 15.8424 128.87 15.6291 128.82 15.4H135.333C135.343 15.2933 135.354 15.1813 135.365 15.064C135.375 14.936 135.381 14.824 135.381 14.728C135.381 13.8 135.183 13.0053 134.789 12.344C134.394 11.672 133.855 11.16 133.173 10.808C132.501 10.4453 131.743 10.264 130.901 10.264C130.026 10.264 129.242 10.456 128.549 10.84C127.855 11.2133 127.306 11.736 126.901 12.408C126.506 13.0693 126.309 13.832 126.309 14.696C126.309 15.5493 126.511 16.312 126.917 16.984C127.322 17.6453 127.893 18.168 128.629 18.552ZM128.791 13.944C128.832 13.6773 128.912 13.4373 129.029 13.224C129.21 12.8826 129.461 12.6213 129.781 12.44C130.111 12.248 130.49 12.152 130.917 12.152C131.343 12.152 131.717 12.248 132.037 12.44C132.357 12.6213 132.607 12.8773 132.789 13.208C132.909 13.4274 132.989 13.6728 133.03 13.944H128.791ZM138.91 18.552C139.657 18.936 140.521 19.128 141.502 19.128C142.281 19.128 142.969 19.0106 143.566 18.776C144.163 18.5306 144.659 18.184 145.054 17.736L143.726 16.296C143.438 16.5733 143.118 16.7813 142.766 16.92C142.425 17.0586 142.025 17.128 141.566 17.128C141.054 17.128 140.606 17.0373 140.222 16.856C139.849 16.664 139.555 16.392 139.342 16.04C139.232 15.8424 139.151 15.6291 139.101 15.4H145.614C145.625 15.2933 145.635 15.1813 145.646 15.064C145.657 14.936 145.662 14.824 145.662 14.728C145.662 13.8 145.465 13.0053 145.07 12.344C144.675 11.672 144.137 11.16 143.454 10.808C142.782 10.4453 142.025 10.264 141.182 10.264C140.307 10.264 139.523 10.456 138.83 10.84C138.137 11.2133 137.587 11.736 137.182 12.408C136.787 13.0693 136.59 13.832 136.59 14.696C136.59 15.5493 136.793 16.312 137.198 16.984C137.603 17.6453 138.174 18.168 138.91 18.552ZM139.072 13.944C139.114 13.6773 139.193 13.4373 139.31 13.224C139.491 12.8826 139.742 12.6213 140.062 12.44C140.393 12.248 140.771 12.152 141.198 12.152C141.625 12.152 141.998 12.248 142.318 12.44C142.638 12.6213 142.889 12.8773 143.07 13.208C143.19 13.4274 143.271 13.6728 143.311 13.944H139.072Z" fill="#DCE1DE"/>
</svg>
